<svg xmlns="http://www.w3.org/2000/svg" xmlns:xlink="http://www.w3.org/1999/xlink" class="hidden"><symbol id="icon-check" viewBox="0 0 16 16"><path d="M6.463 13.424a.502.502 0 0 1-.707 0L.796 8.469a.502.502 0 0 1 0-.707l1.405-1.407a.5.5 0 0 1 .707 0l2.85 2.848a.504.504 0 0 0 .706 0l6.63-6.626a.502.502 0 0 1 .706 0l1.404 1.404a.504.504 0 0 1 0 .707l-8.74 8.736Z" style="stroke-width:0"/></symbol><symbol id="icon-chevron-down" viewBox="0 0 16 16"><path d="M.91 4.053c.563-.577 1.348-.622 2.037 0l5.054 4.846 5.054-4.846c.69-.622 1.476-.577 2.036 0 .563.575.527 1.548 0 2.089-.525.54-6.072 5.821-6.072 5.821a1.416 1.416 0 0 1-2.038 0S1.437 6.683.909 6.142s-.563-1.514 0-2.089Z" style="stroke-width:0"/></symbol><symbol id="icon-chevron-left" viewBox="0 0 16 16"><path d="M11.947.91c.577.563.622 1.348 0 2.037L7.101 8.001l4.846 5.054c.622.69.577 1.476 0 2.036-.575.563-1.548.527-2.089 0-.54-.525-5.821-6.072-5.821-6.072a1.416 1.416 0 0 1 0-2.038S9.317 1.437 9.858.909s1.514-.563 2.089 0Z" style="stroke-width:0"/></symbol><symbol id="icon-chevron-right" viewBox="0 0 16 16"><path d="M4.053 15.09c-.577-.563-.622-1.348 0-2.037l4.846-5.054-4.846-5.054c-.622-.69-.577-1.476 0-2.036.575-.563 1.548-.527 2.089 0 .54.525 5.821 6.072 5.821 6.072a1.416 1.416 0 0 1 0 2.038s-5.28 5.544-5.821 6.072-1.514.563-2.089 0Z" style="stroke-width:0"/></symbol><symbol id="icon-chevron-up" viewBox="0 0 16 16"><path d="M15.09 11.947c-.563.577-1.348.622-2.037 0L7.999 7.101l-5.054 4.846c-.69.622-1.476.577-2.036 0-.563-.575-.527-1.548 0-2.089.525-.54 6.072-5.821 6.072-5.821a1.416 1.416 0 0 1 2.038 0s5.544 5.28 6.072 5.821.563 1.514 0 2.089Z" style="stroke-width:0"/></symbol><symbol id="icon-circle" viewBox="0 0 16 16"><circle cx="8" cy="8" r="6" style="stroke-width:0"/></symbol><symbol id="icon-close" viewBox="0 0 16 16"><path d="M13.551 14.19a1.53 1.53 0 0 1-2.166 0L8 10.32l-3.384 3.867a1.53 1.53 0 1 1-2.167-2.166L5.97 8 2.45 3.977a1.53 1.53 0 1 1 2.166-2.166L8.001 5.68l3.384-3.87a1.53 1.53 0 1 1 2.166 2.167l-3.52 4.024 3.52 4.02a1.532 1.532 0 0 1 0 2.168Z" style="stroke-width:0"/></symbol><symbol id="icon-download" viewBox="0 0 16 16"><path d="M7.692 11.826c.175.21.5.21.675 0l4.394-5.273a.44.44 0 0 0-.337-.721h-2.197V.939A.44.44 0 0 0 9.787.5H6.213a.44.44 0 0 0-.44.44v4.892H3.576a.44.44 0 0 0-.337.721l4.453 5.273Zm7.369-2.478h-1.758a.44.44 0 0 0-.44.44v3.075H3.137V9.787a.44.44 0 0 0-.44-.44H.94a.44.44 0 0 0-.439.44v4.395A1.32 1.32 0 0 0 1.818 15.5h12.364a1.32 1.32 0 0 0 1.318-1.318V9.787a.44.44 0 0 0-.44-.44Z" style="stroke-width:0"/></symbol><symbol id="icon-drupal" viewBox="0 0 16 16"><path d="M11.25 3.328c-.813-.487-1.462-.65-2.194-1.137C8.57 1.866 8 1.216 7.431.566c-.081.975-.406 1.38-.731 1.706-.731.569-1.138.731-1.787 1.056-.57.244-3.413 1.95-3.413 5.688s3.087 6.418 6.581 6.418S14.5 12.916 14.5 9.097s-2.844-5.444-3.25-5.769Zm0 10.888c0 .08-.65.487-1.462.568-.732 0-1.788.082-2.438-.487-.081-.163-.081-.244 0-.325.081-.081.163-.081.244-.081h.081c.244.243.65.406 1.625.406s1.544-.244 1.869-.488c.162-.08.162 0 .162.163 0 .081 0 .162-.081.244Zm-2.438-1.463c.163-.081.407-.325.65-.487.244-.082.326-.082.57-.082s.487.082.65.163c.162.081.243.325.324.487.081.163 0 .244-.081.325-.162.082-.162 0-.244-.162-.081-.244-.162-.406-.65-.406s-.65.243-.893.406c-.244.162-.325.244-.407.162-.081-.162-.081-.243.082-.406Zm3.82.163c-.488-.082-1.545-1.707-2.194-1.707-.813-.08-2.682 1.707-4.063 1.707-.813 0-1.056-.163-1.381-.325-.488-.325-.65-.732-.65-1.382 0-1.137 1.056-2.193 2.356-2.193 1.625 0 2.844 1.625 3.656 1.625.731 0 2.113-1.382 2.763-1.382.731 0 .975.732.975 1.22 0 .487-.163 1.3-.488 1.787-.325.487-.568.65-.975.65Z" style="stroke-width:0"/></symbol><symbol id="icon-error" viewBox="0 0 16 16"><path d="M8.002 1.001a7 7 0 1 0 0 13.998 7 7 0 0 0 0-13.998Zm4.024 9.283c.062.063.1.149.1.239a.34.34 0 0 1-.1.24l-1.261 1.261a.34.34 0 0 1-.48 0L8.002 9.742l-2.286 2.282a.34.34 0 0 1-.48 0l-1.26-1.261a.336.336 0 0 1 0-.478L6.258 8 3.976 5.716a.34.34 0 0 1 0-.48l1.261-1.261a.34.34 0 0 1 .48 0l2.285 2.283 2.283-2.283a.34.34 0 0 1 .48 0l1.261 1.261c.062.063.1.15.1.24a.345.345 0 0 1-.1.24L9.744 8l2.282 2.284Z" style="stroke-width:0"/></symbol><symbol id="icon-facebook" viewBox="0 0 16 16"><path d="M4.04 8.713v-2.83h2.263V3.956c0-1.096.322-1.946.966-2.55C7.913.802 8.77.5 9.842.5c.91 0 1.616.035 2.118.106v2.449h-1.465c-.536 0-.897.106-1.083.318-.187.212-.28.53-.28.954v1.556h2.8l-.373 2.829H9.13V15.5H6.303V8.712H4.04Z" style="stroke-width:0"/></symbol><symbol id="icon-google-plus" viewBox="0 0 16 16"><path d="M.753 12.692c0-.49.134-.942.403-1.36a3.373 3.373 0 0 1 1.074-1.041c.79-.495 2.01-.797 3.66-.906a4.088 4.088 0 0 1-.43-.67 1.5 1.5 0 0 1-.141-.662c0-.217.063-.474.19-.77a7.825 7.825 0 0 1-.616.036c-.893 0-1.647-.291-2.26-.874-.613-.583-.92-1.321-.92-2.215 0-.495.11-.975.326-1.44.218-.465.517-.86.897-1.187A4.522 4.522 0 0 1 4.59.715C5.227.522 5.884.425 6.56.57h3.787l-1.25.58H7.91c.447.454.785.856 1.015 1.278.23.423.344.906.344 1.45 0 .435-.074.826-.222 1.173-.148.347-.326.628-.534.842s-.419.411-.63.59-.391.363-.54.557-.221.392-.221.598c0 .217.096.43.29.638.193.21.427.414.702.616s.548.424.82.666a3.1 3.1 0 0 1 .697.942c.193.386.29.815.29 1.287 0 .543-.145 1.066-.435 1.567-.435.737-1.072 1.279-1.912 1.626s-1.74.521-2.7.521a6.51 6.51 0 0 1-2.233-.376c-.691-.25-1.21-.665-1.554-1.245a2.22 2.22 0 0 1-.335-1.187Zm1.739-.416c0 .423.105.796.317 1.119s.488.574.829.752c.341.178.7.31 1.078.399.377.087.762.131 1.155.131.35 0 .687-.039 1.01-.117.323-.079.622-.197.897-.354s.495-.377.661-.661a1.92 1.92 0 0 0 .187-1.432 3.55 3.55 0 0 0-.132-.38c-.046-.109-.127-.234-.245-.376s-.206-.247-.267-.317-.177-.174-.349-.312a16.883 16.883 0 0 0-.33-.263l-.376-.272a26.817 26.817 0 0 0-.33-.235 3.851 3.851 0 0 0-.436-.018c-.32 0-.637.02-.951.063-.314.042-.64.117-.974.226s-.628.248-.88.417-.457.394-.62.675c-.162.281-.244.6-.244.956v-.001Zm1.16-9.006a4.787 4.787 0 0 0 .376 1.816c.129.311.286.59.47.838s.41.45.68.607c.268.157.56.236.874.235.23 0 .465-.05.707-.15.241-.1.44-.23.597-.394.32-.344.48-.824.48-1.44 0-.35-.05-.728-.154-1.132a5.737 5.737 0 0 0-.44-1.173c-.19-.378-.445-.69-.765-.938a1.69 1.69 0 0 0-1.807-.195 1.6 1.6 0 0 0-.593.476c-.284.356-.426.84-.426 1.45Zm6.957 4.836v-1.74h1.74V4.628h1.16v1.74h1.739v1.74h-1.74v1.739h-1.16v-1.74H10.61Z" style="stroke-width:0"/></symbol><symbol id="icon-instagram" viewBox="0 0 16 16"><path d="M11.987 1.5H4.013a2.515 2.515 0 0 0-2.512 2.512v7.976A2.515 2.515 0 0 0 4.013 14.5h7.974a2.515 2.515 0 0 0 2.512-2.512V4.012A2.515 2.515 0 0 0 11.987 1.5Zm.72 1.499.288-.002v2.204l-2.196.007-.008-2.203 1.917-.006ZM6.146 6.666c.416-.577 1.092-.955 1.855-.955s1.439.378 1.855.955c.271.376.433.836.433 1.334 0 1.262-1.027 2.288-2.288 2.288S5.713 9.262 5.713 8c0-.498.161-.958.432-1.334Zm7.087 5.322c0 .687-.558 1.246-1.245 1.246H4.013a1.247 1.247 0 0 1-1.245-1.246V6.666h1.94A3.524 3.524 0 0 0 4.446 8c0 1.96 1.594 3.555 3.554 3.555S11.554 9.959 11.554 8c0-.472-.095-.922-.262-1.334h1.94v5.322Z" style="stroke-width:0"/></symbol><symbol id="icon-linkedin" viewBox="0 0 16 16"><path d="M.5 2.335c0-.485.169-.886.507-1.204.337-.318.778-.477 1.323-.477s.98.159 1.307.477c.328.318.495.72.502 1.204.007.48-.159.879-.497 1.2-.337.32-.781.482-1.332.482h-.02c-.537 0-.97-.16-1.298-.482a1.61 1.61 0 0 1-.491-1.2H.5Zm.524 13.01v-9.44h3.147v9.44H1.024Zm4.698.001c.013-2.76.02-4.88.02-6.507s-.004-2.596-.01-2.91l-.01-.024h2.855v1.259h-.02c.136-.206.276-.387.42-.541.143-.155.336-.322.578-.502.243-.18.54-.32.891-.42.351-.1.742-.15 1.173-.15 1.167 0 2.106.365 2.816 1.096.71.73 1.065 1.801 1.065 3.212v5.487h-3.147V9.99c.016-.689-.116-1.228-.382-1.618s-.68-.584-1.244-.585c-.413 0-.759.113-1.038.34s-1.112.925-1.112 1.637v5.582H5.72Z" style="stroke-width:0"/></symbol><symbol id="icon-minus" viewBox="0 0 16 16"><path d="M15.5 7.318v1.364c0 .284-.1.525-.299.724a.99.99 0 0 1-.724.299H1.523a.985.985 0 0 1-.724-.3.99.99 0 0 1-.299-.723V7.318c0-.284.1-.525.299-.724s.44-.298.724-.299h12.954c.284 0 .526.1.724.3.199.198.299.44.299.723Z" style="stroke-width:0"/></symbol><symbol id="icon-nav" viewBox="0 0 16 16"><path d="M.5 13.625v-1.25c0-.17.062-.316.186-.44s.27-.185.439-.185h13.75c.17 0 .316.062.44.186s.185.27.185.439v1.25a.6.6 0 0 1-.186.44.6.6 0 0 1-.439.185H1.125a.6.6 0 0 1-.44-.186.6.6 0 0 1-.185-.439Zm0-5v-1.25c0-.17.062-.316.186-.44s.27-.185.439-.185h13.75c.17 0 .316.062.44.186s.185.27.185.439v1.25a.6.6 0 0 1-.186.44.6.6 0 0 1-.439.185H1.125c-.17 0-.316-.062-.44-.186S.5 8.794.5 8.625Zm0-5v-1.25c0-.17.062-.316.186-.44s.27-.185.439-.185h13.75c.17 0 .316.062.44.186s.185.27.185.439v1.25a.6.6 0 0 1-.186.44.6.6 0 0 1-.439.185H1.125a.6.6 0 0 1-.44-.186.6.6 0 0 1-.185-.439Z" style="stroke-width:0"/></symbol><symbol id="icon-pinterest-circle" viewBox="0 0 16 16"><path d="M.5 8c0-1.361.335-2.616 1.006-3.765a7.469 7.469 0 0 1 2.73-2.73A7.33 7.33 0 0 1 8 .5c1.36 0 2.615.336 3.765 1.006 1.149.67 2.059 1.58 2.73 2.73A7.34 7.34 0 0 1 15.5 8a7.34 7.34 0 0 1-1.006 3.765 7.456 7.456 0 0 1-2.73 2.73A7.347 7.347 0 0 1 8 15.5a7.392 7.392 0 0 1-2.129-.313c.384-.605.638-1.139.762-1.6.059-.222.235-.91.528-2.062.13.254.368.474.713.66s.716.278 1.113.278c.788 0 1.491-.223 2.11-.669s1.096-1.06 1.435-1.84.508-1.661.508-2.638a4.02 4.02 0 0 0-.582-2.09c-.387-.651-.949-1.182-1.684-1.592-.736-.41-1.566-.615-2.49-.615-.684 0-1.322.094-1.915.283-.592.189-1.095.44-1.509.752s-.768.672-1.064 1.08c-.296.407-.515.828-.655 1.264s-.21.872-.21 1.309c0 .677.13 1.273.391 1.787.26.514.641.875 1.143 1.084.195.078.319.012.371-.196.013-.045.039-.146.078-.302.04-.157.065-.254.078-.294a.445.445 0 0 0-.107-.42c-.332-.397-.498-.888-.498-1.474 0-.983.34-1.828 1.02-2.535s1.571-1.06 2.671-1.06c.983 0 1.75.268 2.3.802.55.533.826 1.227.825 2.08 0 1.106-.223 2.047-.668 2.822-.446.775-1.018 1.163-1.714 1.162-.397 0-.716-.141-.957-.425-.241-.283-.316-.623-.225-1.02.052-.228.139-.533.26-.914.12-.38.217-.716.292-1.005.075-.29.113-.536.113-.738 0-.325-.088-.596-.264-.81s-.426-.323-.752-.323c-.404 0-.746.186-1.026.557s-.42.833-.42 1.387c0 .475.082.872.245 1.191l-.967 4.082c-.111.456-.153 1.033-.127 1.73A7.475 7.475 0 0 1 1.74 12.13C.914 10.893.5 9.516.5 7.999L.5 8Z" style="stroke-width:0"/></symbol><symbol id="icon-pinterest" viewBox="0 0 16 16"><path d="M6.963 10.42c-.395 2.066-.876 4.046-2.301 5.08-.44-3.121.646-5.465 1.15-7.954-.86-1.447.104-4.358 1.916-3.64 2.232.881-1.931 5.378.863 5.94 2.918.586 4.11-5.062 2.3-6.898C8.276.294 3.28 2.885 3.895 6.684c.15.928 1.109 1.21.383 2.491-1.673-.37-2.172-1.69-2.108-3.45C2.275 2.845 4.758.83 7.25.551c3.15-.354 6.108 1.157 6.517 4.12.46 3.346-1.422 6.97-4.792 6.709-.913-.072-1.296-.525-2.011-.96Z" style="stroke-width:0"/></symbol><symbol id="icon-play" viewBox="0 0 16 16"><path d="M14.067 4.501C12.13 1.127 7.882.003 4.508 1.94 1.134 3.876.01 8.125 1.946 11.499c1.937 3.374 6.186 4.498 9.56 2.561 3.31-1.936 4.498-6.185 2.561-9.559Zm-3.249 8.31c-2.686 1.562-6.123.625-7.622-2.062-1.562-2.687-.625-6.123 2.062-7.622 2.686-1.562 6.123-.625 7.622 2.062 1.5 2.686.625 6.122-2.062 7.622Zm-.312-5.123L6.82 5.563c-.313-.187-.625-.062-.625.375v4.249c0 .375.25.562.625.375l3.623-2.125c.438-.187.438-.5.063-.75Z" style="stroke-width:0"/></symbol><symbol id="icon-plus" viewBox="0 0 16 16"><path d="M14.721 6.688a.919.919 0 0 0-.676-.279H9.591V1.955a.924.924 0 0 0-.279-.676A.919.919 0 0 0 8.636 1H7.364a.923.923 0 0 0-.676.279.919.919 0 0 0-.279.676v4.454H1.955a.924.924 0 0 0-.676.279.919.919 0 0 0-.279.676v1.272c0 .265.093.49.279.676.185.186.41.279.676.279h4.454v4.454c0 .265.093.49.279.676.185.186.41.279.676.279h1.272c.265 0 .49-.093.676-.279a.92.92 0 0 0 .279-.676V9.591h4.454c.265 0 .49-.093.676-.279A.92.92 0 0 0 15 8.636V7.364a.924.924 0 0 0-.279-.676Z" style="stroke-width:0"/></symbol><symbol id="icon-rss" viewBox="0 0 16 16"><path d="M1.5 1.5v2.024c6.061 0 10.974 4.915 10.974 10.975H14.5C14.5 7.32 8.68 1.5 1.5 1.5Zm0 4.051v2.026A6.922 6.922 0 0 1 8.424 14.5h2.025c0-4.942-4.006-8.949-8.947-8.949Zm1.941 5.065a1.942 1.942 0 0 0 0 3.884 1.941 1.941 0 0 0 0-3.884Z" style="stroke-width:0"/></symbol><symbol id="icon-search" viewBox="0 0 16 16"><path d="M15.087 15.087c-.55.55-1.442.55-1.992 0l-2.486-2.486a6.524 6.524 0 0 1-3.535 1.046 6.574 6.574 0 1 1 6.573-6.573c0 1.304-.39 2.512-1.046 3.535l2.486 2.486c.55.55.55 1.442 0 1.992ZM7.074 2.377a4.696 4.696 0 1 0 0 9.392 4.696 4.696 0 0 0 0-9.391Z" style="stroke-width:0"/></symbol><symbol id="icon-twitter" viewBox="0 0 16 16"><path d="M13.964 4.94c.007.132.01.265.01.397 0 4.068-3.096 8.758-8.756 8.758A8.704 8.704 0 0 1 .5 12.71a6.177 6.177 0 0 0 4.555-1.273A3.08 3.08 0 0 1 2.181 9.3a3.146 3.146 0 0 0 1.39-.053A3.08 3.08 0 0 1 1.102 6.23v-.038c.415.23.89.37 1.394.386a3.077 3.077 0 0 1-.952-4.11 8.735 8.735 0 0 0 6.343 3.216 3.076 3.076 0 0 1 2.998-3.778c.885 0 1.685.373 2.247.971a6.198 6.198 0 0 0 1.954-.746 3.089 3.089 0 0 1-1.353 1.702 6.156 6.156 0 0 0 1.767-.484 6.215 6.215 0 0 1-1.536 1.592Z" style="stroke-width:0"/></symbol><symbol id="icon-video" viewBox="0 0 16 16"><path d="M8 .5C3.864.5.5 3.865.5 8s3.364 7.5 7.5 7.5 7.5-3.365 7.5-7.5S12.136.5 8 .5Zm2.982 7.763-4.375 2.812a.311.311 0 0 1-.319.012.312.312 0 0 1-.163-.274V5.188a.312.312 0 0 1 .482-.263l4.375 2.812a.313.313 0 0 1 0 .526Z" style="stroke-width:0"/></symbol><symbol id="icon-warning" viewBox="0 0 16 16"><path d="m14.713 12.565-5.36-10.72c-.743-1.487-1.96-1.487-2.706 0l-5.36 10.72c-.744 1.489.008 2.705 1.672 2.705H13.04c1.664 0 2.416-1.216 1.672-2.705ZM6.99 4.18h2.018v5.04H6.991v-5.04Zm2.27 8.685c0 .347-.283.63-.63.63h-1.26a.632.632 0 0 1-.631-.63v-1.249c0-.347.283-.63.631-.63h1.26c.347 0 .63.283.63.63v1.249Z" style="stroke-width:0"/></symbol><symbol id="icon-youtube" viewBox="0 0 16 16"><path d="M11.07 2.933v2.859c-.07.082-.152.15-.235.204-.091.053-.159.082-.22.082-.067 0-.12-.022-.15-.06-.039-.045-.054-.105-.054-.196V2.933H9.64v3.145c0 .228.045.394.136.508.09.113.228.166.4.166.152 0 .296-.038.454-.113.151-.083.296-.197.44-.355v.415h.77V2.933h-.77Zm-2.353.182c-.204-.189-.468-.28-.785-.28-.348 0-.628.091-.84.265a.859.859 0 0 0-.309.695v1.952c0 .325.105.573.301.764.205.188.477.287.81.287.347 0 .628-.09.823-.28.205-.182.303-.432.303-.756V3.818a.92.92 0 0 0-.303-.703Zm-.483 2.707a.31.31 0 0 1-.091.234.332.332 0 0 1-.25.09c-.098 0-.18-.029-.234-.09a.33.33 0 0 1-.083-.234V3.765c0-.083.03-.15.09-.196.054-.054.137-.076.228-.076.098 0 .181.022.249.076a.233.233 0 0 1 .09.196v2.057Zm-2.39-4.227-.536 2.042h-.06l-.56-2.042h-.876L4.847 4.68V6.7h.87V4.581l1.005-2.987h-.877Zm6.012 8.991c.045.06.067.166.067.302v.348h-.597v-.348c0-.136.015-.241.068-.302.046-.06.121-.099.235-.099.105 0 .18.038.227.1Zm-2.375-.015c-.045-.061-.12-.091-.212-.091a.332.332 0 0 0-.143.03.59.59 0 0 0-.143.107v2.131a.56.56 0 0 0 .166.122.41.41 0 0 0 .159.038c.09 0 .15-.023.188-.076.038-.045.061-.122.061-.235v-1.769c0-.114-.023-.197-.076-.257Zm0 0c-.045-.061-.12-.091-.212-.091a.332.332 0 0 0-.143.03.59.59 0 0 0-.143.107v2.131a.56.56 0 0 0 .166.122.41.41 0 0 0 .159.038c.09 0 .15-.023.188-.076.038-.045.061-.122.061-.235v-1.769c0-.114-.023-.197-.076-.257Zm3.88-2.639H2.64C1.467 7.932.5 8.9.5 10.079v2.186c0 1.18.967 2.14 2.14 2.14h10.72c1.172 0 2.14-.96 2.14-2.14V10.08c0-1.179-.968-2.147-2.14-2.147ZM5.527 9.437h-.802v3.961h-.771V9.437H3.16v-.673h2.367v.673Zm2.252 3.961h-.688v-.377a1.268 1.268 0 0 1-.393.317.804.804 0 0 1-.394.114.435.435 0 0 1-.362-.16c-.076-.098-.113-.248-.113-.452V9.973h.68v2.632c0 .075.015.136.046.173.022.04.075.054.136.054a.339.339 0 0 0 .19-.076.691.691 0 0 0 .21-.182v-2.6h.688v3.424Zm2.48-.71c0 .242-.053.43-.159.56-.105.128-.264.196-.468.196a.785.785 0 0 1-.356-.075.962.962 0 0 1-.294-.235v.264h-.688V8.764h.688v1.49c.09-.1.188-.182.294-.235a.705.705 0 0 1 .318-.083c.211 0 .378.075.491.219.114.144.174.355.174.636v1.897Zm2.375-.915h-1.31v.643c0 .181.016.303.062.371.045.075.128.105.234.105.113 0 .189-.03.235-.09.045-.054.067-.19.067-.386v-.159h.712v.173c0 .357-.091.62-.266.795-.166.181-.424.265-.763.265-.31 0-.552-.092-.726-.28-.173-.189-.264-.446-.264-.78v-1.534a.96.96 0 0 1 .295-.726c.188-.182.438-.28.748-.28s.552.09.718.265c.167.174.258.416.258.74v.878ZM9.269 10.48a.332.332 0 0 0-.143.03.59.59 0 0 0-.143.107v2.131a.56.56 0 0 0 .166.122.41.41 0 0 0 .159.038c.09 0 .15-.023.188-.076.038-.045.061-.122.061-.235v-1.769c0-.114-.023-.197-.076-.257-.045-.061-.12-.091-.212-.091Zm.212.09c-.045-.06-.12-.09-.212-.09a.332.332 0 0 0-.143.03.59.59 0 0 0-.143.107v2.131a.56.56 0 0 0 .166.122.41.41 0 0 0 .159.038c.09 0 .15-.023.188-.076.038-.045.061-.122.061-.235v-1.769c0-.114-.023-.197-.076-.257Zm0 0c-.045-.06-.12-.09-.212-.09a.332.332 0 0 0-.143.03.59.59 0 0 0-.143.107v2.131a.56.56 0 0 0 .166.122.41.41 0 0 0 .159.038c.09 0 .15-.023.188-.076.038-.045.061-.122.061-.235v-1.769c0-.114-.023-.197-.076-.257Z" style="stroke-width:0"/></symbol></svg>