<?xml version="1.0" encoding="UTF-8"?><svg id="Layer_1" xmlns="http://www.w3.org/2000/svg" viewBox="0 0 16 16"><path d="m11.06918,2.93308v2.85856c-.06853.08273-.15072.15073-.23433.20417-.09084.05337-.15849.08265-.21916.08265-.06765,0-.121-.0224-.15117-.06025-.03836-.04568-.05336-.10512-.05336-.19641v-2.88873h-.77135v3.14538c0,.22737.04568.39361.13653.50729.09005.11368.22737.16626.40049.16626.15161,0,.29502-.03792.4535-.1128.15117-.08353.29545-.19729.43886-.35569v.41592h.7717v-3.76635h-.7717Zm-2.3518.18177c-.20452-.18866-.46849-.27994-.78546-.27994-.34837,0-.62786.09128-.83969.26529-.20461.17313-.30922.39962-.30922.69506v1.95166c0,.32465.10461.57354.30145.76394.20408.18856.47669.28681.80919.28681.34749,0,.62786-.09049.82374-.27993.20461-.18176.30278-.43153.30278-.75617v-1.94311c0-.2876-.10593-.52194-.30278-.70362Zm-.48357,2.70696c0,.09816-.03016.17401-.09128.23425-.05988.06121-.14296.09049-.24889.09049-.09825,0-.18089-.02928-.23469-.09049-.05212-.05248-.08317-.13609-.08317-.23425v-2.0567c0-.08272.03104-.15072.09084-.19641.05345-.05336.13608-.07575.22701-.07575.09817,0,.18168.02239.24889.07575.06112.04569.09128.11369.09128.19641v2.0567ZM5.84461,1.59471l-.53614,2.04207h-.06112l-.55942-2.04207h-.87639l1.03576,3.08506v2.01965h.86898v-2.11781l1.0056-2.9869h-.87727Zm6.01092,8.99174c.04516.06023.06756.16537.06756.30145v.34793h-.59726v-.34793c0-.13608.01508-.24122.06844-.30145.04524-.06121.121-.09905.2347-.09905.10547,0,.18088.03784.22656.09905Zm-2.37411-.01553c-.04525-.0612-.12101-.09128-.21194-.09128-.04516,0-.09816.00776-.1434.03008-.0456.02328-.09816.0612-.1434.1068v2.13168c.05256.05344.11324.09903.16626.12144.053.02241.10547.03792.15892.03792.09084,0,.15072-.0224.18821-.07576.03784-.04479.06112-.12144.06112-.23433v-1.769c0-.11457-.02328-.19729-.07575-.25754Zm0,0c-.04525-.0612-.12101-.09128-.21194-.09128-.04516,0-.09816.00776-.1434.03008-.0456.02328-.09816.0612-.1434.1068v2.13168c.05256.05344.11324.09903.16626.12144.053.02241.10547.03792.15892.03792.09084,0,.15072-.0224.18821-.07576.03784-.04479.06112-.12144.06112-.23433v-1.769c0-.11457-.02328-.19729-.07575-.25754Zm3.87871-2.63896H2.63978c-1.17263,0-2.13978.96811-2.13978,2.14718v2.18592c0,1.17908.96715,2.14022,2.13978,2.14022h10.72035c1.17176,0,2.13987-.96115,2.13987-2.14022v-2.18592c0-1.17908-.96811-2.14718-2.13987-2.14718Zm-7.83249,1.50469h-.80135v3.96179h-.7717v-3.96179h-.79367v-.67266h2.36672v.67266Zm2.25231,3.96179h-.68773v-.37721c-.12101.14297-.2571.24889-.39274.31698-.13608.07576-.26529.11368-.39405.11368-.15805,0-.27905-.05345-.36257-.15938-.07585-.09815-.11333-.24889-.11333-.45297v-2.86633h.68042v2.632c0,.07497.01508.13608.04568.17313.02284.03881.07533.05344.13653.05344.05203,0,.11324-.02239.189-.07585.08273-.04559.15117-.10591.21106-.18168v-2.60104h.68773v3.42522Zm2.48004-.7105c0,.24201-.05301.43066-.15893.55978-.10504.12832-.26441.19641-.4677.19641-.13732,0-.25065-.02329-.35656-.07497-.10549-.05424-.20321-.12911-.29414-.23512v.2644h-.6881v-4.63445h.6881v1.48907c.09093-.09816.18865-.1808.29414-.23425.10591-.05336.21192-.08264.31785-.08264.21184,0,.37809.07488.49133.21872.11412.14385.17401.35482.17401.63562v1.89742Zm2.37456-.91466h-1.30872v.64249c0,.18168.01508.30313.06112.37122.0448.07488.12832.10504.23425.10504.11324,0,.18865-.03016.23433-.09041.04516-.05344.06756-.18952.06756-.38585v-.15848h.71147v.17313c0,.35657-.09093.62009-.26529.79411-.16581.18168-.42378.26528-.76315.26528-.31045,0-.55201-.09137-.72646-.27993-.17313-.18865-.26397-.44618-.26397-.77946v-1.53485c0-.29449.09816-.5365.29501-.72514.18856-.18256.43789-.27994.74798-.27994.31053,0,.55254.0904.71791.26441.16704.17402.25797.41602.25797.74067v.87771Zm-3.36507-1.29365c-.04516,0-.09816.00776-.1434.03008-.0456.02328-.09816.0612-.1434.1068v2.13168c.05256.05344.11324.09903.16626.12144.053.02241.10547.03792.15892.03792.09084,0,.15072-.0224.18821-.07576.03784-.04479.06112-.12144.06112-.23433v-1.769c0-.11457-.02328-.19729-.07575-.25754-.04525-.0612-.12101-.09128-.21194-.09128Zm.21194.09128c-.04525-.0612-.12101-.09128-.21194-.09128-.04516,0-.09816.00776-.1434.03008-.0456.02328-.09816.0612-.1434.1068v2.13168c.05256.05344.11324.09903.16626.12144.053.02241.10547.03792.15892.03792.09084,0,.15072-.0224.18821-.07576.03784-.04479.06112-.12144.06112-.23433v-1.769c0-.11457-.02328-.19729-.07575-.25754Zm0,0c-.04525-.0612-.12101-.09128-.21194-.09128-.04516,0-.09816.00776-.1434.03008-.0456.02328-.09816.0612-.1434.1068v2.13168c.05256.05344.11324.09903.16626.12144.053.02241.10547.03792.15892.03792.09084,0,.15072-.0224.18821-.07576.03784-.04479.06112-.12144.06112-.23433v-1.769c0-.11457-.02328-.19729-.07575-.25754Z" style="stroke-width:0px;"/></svg>