<?xml version="1.0" encoding="UTF-8"?><svg id="Layer_1" xmlns="http://www.w3.org/2000/svg" viewBox="0 0 16 16"><path d="m.75285,12.69194c0-.48937.13432-.9424.40297-1.35909.26865-.4167.62659-.76401,1.07382-1.04193.79126-.49516,2.0112-.79725,3.65981-.90626-.19327-.25357-.33668-.477-.43023-.67027-.09354-.19327-.14032-.4138-.14032-.66157,0-.21724.06339-.4739.19018-.77-.27793.02435-.48318.03653-.61577.03653-.89369,0-1.64707-.29146-2.26013-.87437-.61306-.58291-.91959-1.32121-.91959-2.21491,0-.49517.10862-.97525.32586-1.44027.21724-.46501.51623-.86064.89698-1.18689.46501-.39853,1.01623-.69443,1.65364-.8877.63741-.19327,1.29415-.28991,1.97022-.1465h3.78679l-1.25009.57982h-1.18689c.44685.45438.78507.85601,1.01468,1.27889.22961.42288.34441.90606.34441,1.44955,0,.43486-.07402.82585-.22207,1.17297-.14805.34712-.32624.62794-.53459.84248s-.41824.4109-.62968.5891-.39118.36393-.53923.55721-.22207.39254-.22207.59779c0,.21724.09664.43023.28991.63896.19327.20873.42733.41399.70216.61577s.54812.42365.81986.66563c.27174.24198.50425.55605.69752.94221.19327.38616.28991.81503.28991,1.28662,0,.54348-.14495,1.0659-.43486,1.56725-.43486.73676-1.07208,1.27889-1.91166,1.62639s-1.73946.52106-2.69963.52068c-.79744,0-1.54193-.12524-2.23346-.37572-.69153-.25048-1.2095-.66563-1.55391-1.24545-.22342-.36258-.33514-.75821-.33514-1.18689h.00058Zm1.73888-.41631c0,.42288.10572.7959.31716,1.11905s.48782.57383.82914.75203c.34132.1782.70061.31117,1.07788.39891.37727.08775.76227.13162,1.155.13162.35021,0,.68689-.03923,1.01004-.1177.32315-.07847.62215-.19617.89698-.35311s.49536-.37746.66157-.66157c.16621-.28411.24932-.61325.24932-.98743,0-.15114-.02107-.29919-.0632-.44414s-.08601-.27174-.13162-.38036c-.04561-.10862-.12717-.23386-.24468-.37572s-.20661-.24758-.2673-.31716-.17704-.17375-.34905-.31252c-.17201-.13877-.28218-.22632-.3305-.26266-.04832-.03633-.17356-.12698-.37572-.27193s-.31233-.22342-.3305-.23541c-.09664-.01198-.24159-.01797-.43486-.01797-.32006,0-.63722.02107-.95148.0632-.31426.04213-.63896.1177-.97409.22671s-.62814.24797-.879.41689-.45767.39389-.62041.67491c-.16274.28102-.2443.59953-.24468.95554v-.00116ZM3.65136,3.26989c0,.27793.03015.57228.09045.88306.0603.31078.15539.62176.28527.93293s.28682.59045.47081.83784.41051.44975.67955.60707c.26904.15732.56049.23579.87437.23541.22961,0,.46521-.04986.7068-.14959.24159-.09973.44086-.23115.59779-.39428.32006-.34441.48009-.8245.48009-1.44027,0-.35021-.05141-.72767-.15423-1.13239-.10282-.40471-.24932-.7957-.4395-1.17297-.19018-.37727-.4453-.68979-.76536-.93757s-.67336-.37166-1.05991-.37166c-.25357,0-.5027.05895-.74739.17684s-.4424.27638-.59315.47545c-.28372.3564-.42559.83958-.42559,1.44955v.00058Zm6.95782,4.83646v-1.73946h1.73946v-1.73946h1.15964v1.73946h1.73946v1.73946h-1.73946v1.73946h-1.15964v-1.73946h-1.73946Z" style="stroke-width:0px;"/></svg>