<?xml version="1.0" encoding="UTF-8"?><svg id="Layer_1" xmlns="http://www.w3.org/2000/svg" viewBox="0 0 16 16"><path d="m8.002,1.001c-3.86745,0-7.001,3.13355-7.001,6.999s3.13355,6.999,7.001,6.999c3.86445,0,6.999-3.13355,6.999-6.999S11.86645,1.001,8.002,1.001Zm4.02443,9.28267c.06199.06299.09999.14898.09999.23897,0,.09099-.03699.17697-.09999.23997l-1.26182,1.26182c-.06399.06199-.14998.09999-.23997.09999s-.17597-.036-.23997-.09999l-2.28267-2.28267-2.28567,2.28267c-.06399.06199-.14998.09999-.23997.09999s-.17597-.036-.23997-.09999l-1.26082-1.26182c-.06299-.06199-.09999-.14798-.09999-.23997,0-.08799.03599-.17597.09999-.23797l2.28267-2.28467-2.28267-2.28367c-.06299-.06399-.09999-.14998-.09999-.23997s.03599-.17597.09999-.23997l1.26182-1.26182c.06299-.06299.14898-.09999.23997-.09999.08899,0,.17597.03599.23997.09999l2.28467,2.28367,2.28267-2.28367c.06399-.06299.14998-.09999.23997-.09999s.17597.03599.23997.09999l1.26182,1.26182c.06199.06299.09999.14898.09999.23997,0,.08899-.03699.17597-.09999.23997l-2.28267,2.28367,2.28267,2.28367Z" style="stroke-width:0px;"/></svg>