<?xml version="1.0" encoding="UTF-8"?><svg id="Layer_1" xmlns="http://www.w3.org/2000/svg" viewBox="0 0 16 16"><path d="m14.7128,12.56458L9.35385,1.84567c-.74396-1.48793-1.96172-1.48793-2.70669,0L1.2872,12.56458c-.74396,1.48893.00806,2.70569,1.6714,2.70569h10.08281c1.66333,0,2.41536-1.21675,1.6714-2.70569ZM6.99091,4.18139h2.01818v5.0404h-2.01818v-5.0404Zm2.2702,8.68461c0,.34678-.28327.63005-.63005.63005h-1.2601c-.34779,0-.63106-.28327-.63106-.63005v-1.24901c0-.34678.28327-.63005.63106-.63005h1.2601c.34678,0,.63005.28327.63005.63005v1.24901Z" style="stroke-width:0px;"/></svg>