<?xml version="1.0" encoding="UTF-8"?><svg id="Layer_1" xmlns="http://www.w3.org/2000/svg" viewBox="0 0 16 16"><path d="m11.25,3.3281c-.8125-.48748-1.46249-.64999-2.19376-1.13747-.48748-.32502-1.05624-.97501-1.625-1.625-.08123.97501-.40625,1.38126-.73122,1.70623-.73127.56876-1.13752.73127-1.78751,1.05624-.56876.24379-3.41251,1.95002-3.41251,5.6875s3.08749,6.41877,6.58123,6.41877,6.41877-2.51873,6.41877-6.33749-2.84375-5.44376-3.25-5.76878Zm0,10.88752c0,.08123-.64999.48748-1.46249.56876-.73127,0-1.78751.08123-2.4375-.48753-.08128-.16246-.08128-.24374,0-.32497.08123-.08128.16251-.08128.24374-.08128h.08123c.24379.24379.65004.40625,1.625.40625.97501,0,1.54377-.24374,1.86879-.48748.16246-.08123.16246,0,.16246.16251,0,.08123,0,.16251-.08123.24374Zm-2.4375-1.46249c.16251-.08128.40625-.32502.64999-.48753.24374-.08123.32502-.08123.56876-.08123s.48748.08123.64999.16251c.16251.08123.24374.32497.32502.48748.08123.16251,0,.24374-.08128.32502-.16246.08123-.16246,0-.24374-.16251-.08123-.24374-.16251-.40625-.64999-.40625s-.64999.24374-.89373.40625c-.24379.16251-.32502.24374-.40625.16251-.08128-.16251-.08128-.24374.08123-.40625Zm3.81876.16251c-.48753-.08128-1.54377-1.70628-2.19376-1.70628-.8125-.08123-2.68124,1.70628-4.0625,1.70628-.8125,0-1.05624-.16251-1.38126-.32502-.48748-.32502-.64999-.73127-.64999-1.38126,0-1.13747,1.05624-2.19376,2.35627-2.19376,1.625,0,2.84375,1.625,3.65625,1.625.73122,0,2.11248-1.38121,2.76247-1.38121.73127,0,.97501.73122.97501,1.21875,0,.48748-.16251,1.29998-.48748,1.78746-.32502.48753-.56876.65004-.97501.65004Z" style="stroke-width:0px;"/></svg>