<?xml version="1.0" encoding="UTF-8"?><svg id="Layer_1" xmlns="http://www.w3.org/2000/svg" viewBox="0 0 16 16"><path d="m8,.5C3.86425.5.5,3.86457.5,8s3.36425,7.5,7.5,7.5,7.5-3.36457,7.5-7.5S12.13575.5,8,.5Zm2.98157,7.76276l-4.37499,2.8125c-.05127.03325-.11048.04975-.16907.04975-.05127,0-.10315-.01283-.14953-.03814-.10072-.05493-.16298-.15993-.16298-.27436v-5.625c0-.11443.06226-.21943.16298-.27437.09888-.05432.22277-.05098.3186.0116l4.37499,2.8125c.08912.05736.14344.15656.14344.26276s-.05432.20537-.14344.26276Z" style="stroke-width:0px;"/></svg>