<?xml version="1.0" encoding="UTF-8"?><svg id="Layer_1" xmlns="http://www.w3.org/2000/svg" viewBox="0 0 16 16"><path d="m.5,13.625v-1.25c0-.16917.06187-.31562.18562-.43937s.27021-.18562.43938-.18563h13.75c.16917,0,.31562.06188.43937.18563s.18563.27021.18563.43937v1.25c0,.16917-.06187.31562-.18563.43937-.12375.12375-.27021.18563-.43937.18563H1.125c-.16917,0-.31562-.06187-.43938-.18563-.12375-.12375-.18563-.27021-.18562-.43937Zm0-5v-1.25c0-.16917.06187-.31563.18562-.43938s.27021-.18562.43938-.18562h13.75c.16917,0,.31562.06187.43937.18562s.18563.27021.18563.43938v1.25c0,.16917-.06187.31563-.18563.43938-.12375.12375-.27021.18562-.43937.18562H1.125c-.16917,0-.31562-.06187-.43938-.18562s-.18563-.27021-.18562-.43938ZM.5,3.625v-1.25c0-.16917.06187-.31563.18562-.43938s.27021-.18562.43938-.18562h13.75c.16917,0,.31562.06187.43937.18562s.18563.27021.18563.43938v1.25c0,.16917-.06187.31562-.18563.43938-.12375.12375-.27021.18562-.43937.18562H1.125c-.16917,0-.31562-.06188-.43938-.18562-.12375-.12375-.18563-.27021-.18562-.43938Z" style="stroke-width:0px;"/></svg>