<?xml version="1.0" encoding="UTF-8"?><svg id="Layer_1" xmlns="http://www.w3.org/2000/svg" viewBox="0 0 16 16"><path d="m6.96272,10.42036c-.39449,2.06546-.87523,4.04541-2.30095,5.07964-.43949-3.12143.64574-5.46513,1.15048-7.95358-.86023-1.44747.1035-4.35891,1.91621-3.64117,2.2312.88198-1.93196,5.37888.86248,5.94137,2.91819.58574,4.10916-5.06239,2.29945-6.8991-2.61369-2.65344-7.60934-.06225-6.99435,3.73642.14925.92848,1.10848,1.20972.38324,2.49145-1.67321-.37049-2.1727-1.69046-2.1082-3.44993.1035-2.87994,2.58669-4.89515,5.07814-5.17489,3.15068-.35324,6.10787,1.15723,6.51661,4.12041.45974,3.34568-1.42197,6.9696-4.79165,6.70861-.91348-.07125-1.29597-.52424-2.01146-.95923Z" style="stroke-width:0px;"/></svg>