<?xml version="1.0" encoding="UTF-8"?><svg id="Layer_1" xmlns="http://www.w3.org/2000/svg" viewBox="0 0 16 16"><path d="m11.98681,1.5h-7.97362c-1.38516,0-2.51208,1.12692-2.51208,2.51208v7.97583c0,1.38516,1.12693,2.51209,2.51208,2.51209h7.97362c1.38516,0,2.51208-1.12693,2.51208-2.51209v-7.97583c0-1.38516-1.12693-2.51208-2.51208-2.51208Zm.72089,1.49857l.28735-.00145v2.20387l-2.19638.00673-.00749-2.20319,1.91652-.00595Zm-6.56232,3.66743c.41574-.57691,1.09116-.95459,1.85462-.95459s1.43888.37767,1.85454.95459c.27168.37608.43362.83583.43362,1.33365,0,1.26196-1.02689,2.28817-2.28817,2.28817s-2.28748-1.0262-2.28748-2.28817c0-.49782.16194-.95757.43286-1.33365Zm7.08704,5.32191c0,.68666-.55827,1.24561-1.24561,1.24561h-7.97362c-.68734,0-1.24561-.55895-1.24561-1.24561v-5.32191h1.94044c-.16798.41192-.26198.86197-.26198,1.33365,0,1.95978,1.59411,3.5554,3.55395,3.5554s3.55395-1.59563,3.55395-3.5554c0-.47168-.09476-.92173-.26198-1.33365h1.94044v5.32191Z" style="stroke-width:0px;"/></svg>