<?xml version="1.0" encoding="UTF-8"?><svg id="Layer_1" xmlns="http://www.w3.org/2000/svg" viewBox="0 0 16 16"><path d="m13.96413,4.93967c.00652.13207.00897.26576.00897.39783,0,4.06794-3.09538,8.75707-8.75544,8.75707-1.73886,0-3.35544-.50951-4.71766-1.38342.2413.02853.48587.04321.7337.04321,1.44293,0,2.76929-.49239,3.82174-1.31658-1.34592-.02527-2.48315-.91386-2.87446-2.13669.1875.03505.38071.0538.5788.0538.28125,0,.55353-.03668.81114-.10679-1.40788-.2837-2.46848-1.5269-2.46848-3.01875v-.03832c.41495.23071.89022.36929,1.39402.3856-.82582-.55272-1.36957-1.49348-1.36957-2.56223,0-.56332.15163-1.09239.41739-1.54728,1.51712,1.86277,3.78587,3.08723,6.34321,3.21603-.05217-.22582-.07908-.45978-.07908-.7019,0-1.69891,1.3769-3.07582,3.07663-3.07582.88533,0,1.68505.37255,2.24674.97092.70027-.13859,1.35897-.39457,1.95408-.74674-.22989.71821-.71821,1.32147-1.35326,1.70217.62283-.075,1.21467-.23886,1.76739-.48424-.4125.61793-.93424,1.15924-1.53587,1.59212Z" style="stroke-width:0px;"/></svg>