<?xml version="1.0" encoding="UTF-8"?><svg id="Layer_1" xmlns="http://www.w3.org/2000/svg" viewBox="0 0 16 16"><path d="m.5,2.33535c0-.48503.16888-.88657.50664-1.20462.33776-.31804.77874-.47706,1.32294-.47706s.98014.15902,1.30783.47706c.32769.31804.4949.71958.50161,1.20462.00671.47874-.15881.8786-.49657,1.19958-.33776.32098-.78189.48168-1.33238.4821h-.01951c-.53748,0-.97028-.1607-1.29839-.4821-.32811-.3214-.49196-.72126-.49154-1.19958h-.00063Zm.52448,13.01035V5.90514h3.14685v9.44056H1.02448Zm4.69741.00063c.01301-2.76021.01951-4.88098.01951-6.50685s-.00336-2.59615-.01007-2.91084l-.01007-.0235h2.85566v1.25874h-.02032c.13676-.20608.2768-.3864.42012-.54096.14332-.15456.33622-.3219.57873-.50201.2425-.18011.5394-.32025.8907-.4204.3513-.10016.74214-.15003,1.17253-.14961,1.1675,0,2.10626.36538,2.81629,1.09614.71003.73076,1.06504,1.80135,1.06504,3.21177v5.4869h-3.14685v-5.35573c.01615-.68853-.11664-1.22769-.38224-1.61748s-.68035-.5849-1.24427-.58531c-.41287,0-.7586.11308-1.0372.33923s-1.11252.92559-1.11252,1.63762v5.58231h-2.85566.00063Z" style="stroke-width:0px;"/></svg>