<?xml version="1.0" encoding="UTF-8"?><svg id="Layer_1" xmlns="http://www.w3.org/2000/svg" viewBox="0 0 16 16"><g id="Capa_1"><g id="_356._Play"><path d="m14.06714,4.50125C12.13033,1.12746,7.88185.00286,4.50806,1.93967,1.13426,3.87647.00967,8.12496,1.94647,11.49875c1.93681,3.37379,6.18529,4.49839,9.55908,2.56158,3.31132-1.93681,4.49839-6.18529,2.56158-9.55908Zm-3.24884,8.30953c-2.68654,1.56194-6.12281.62478-7.62228-2.06176-1.56194-2.68654-.62478-6.12281,2.06176-7.62228,2.68654-1.56194,6.12281-.62478,7.62227,2.06176,1.49946,2.68654.62478,6.12281-2.06176,7.62227Zm-.31239-5.12317l-3.68618-2.12424c-.31239-.18743-.62478-.06248-.62478.37487v4.24848c0,.37487.24991.5623.62478.37487l3.6237-2.12424c.43734-.18743.43734-.49982.06248-.74973Z" style="stroke-width:0px;"/></g></g></svg>