<?xml version="1.0" encoding="UTF-8"?><svg id="Layer_1" xmlns="http://www.w3.org/2000/svg" viewBox="0 0 16 16"><path d="m13.55098,14.18924c-.59869.59869-1.56885.59869-2.16627,0l-3.38408-3.86788-3.38408,3.8666c-.59869.59869-1.56885.59869-2.16627,0-.59869-.59869-.59869-1.56885,0-2.16627l3.52066-4.02106L2.44902,3.97702c-.59869-.59869-.59869-1.56758,0-2.16627s1.56758-.59869,2.16627,0l3.38535,3.86916,3.38408-3.86916c.59869-.59869,1.56758-.59869,2.16627,0s.59869,1.56885,0,2.16627l-3.52066,4.02362,3.52066,4.02106c.59869.59869.59869,1.56885,0,2.16754Z" style="stroke-width:0px;"/></svg>