<?xml version="1.0" encoding="UTF-8"?><svg id="Layer_1" xmlns="http://www.w3.org/2000/svg" viewBox="0 0 16 16"><path d="m.5,8c0-1.36095.33524-2.61584,1.00571-3.76469.67047-1.14885,1.58034-2.05871,2.7296-2.7296,1.14926-.67089,2.40416-1.00613,3.76469-1.00571,1.36053.00042,2.61543.33565,3.76469,1.00571,1.14926.67006,2.05913,1.57992,2.7296,2.7296.67047,1.14968,1.00571,2.40458,1.00571,3.76469,0,1.36011-.33524,2.61501-1.00571,3.76469-.67047,1.14968-1.58034,2.05955-2.7296,2.7296-1.14926.67005-2.40416,1.00529-3.76469,1.00571-.72256,0-1.4322-.10417-2.12893-.31253.3842-.60547.63818-1.13926.76194-1.60138.05875-.22127.2346-.9082.52754-2.0608.13043.25377.36816.47358.71318.65943s.7161.27857,1.11322.27815c.78798,0,1.49117-.22294,2.10955-.66881s1.09697-1.05946,1.43575-1.84078.50796-1.66035.50754-2.63709c0-.74215-.19377-1.43887-.5813-2.09017-.38753-.6513-.94904-1.18197-1.68452-1.59201-.73548-.41003-1.56555-.61505-2.49021-.61505-.68381,0-1.32199.09438-1.91453.28315-.59255.18877-1.09551.43941-1.50888.75194s-.76819.67235-1.06446,1.07947c-.29627.40712-.51442.82861-.65443,1.26448s-.21002.87216-.21002,1.30886c0,.67714.13022,1.27281.39066,1.78702.26044.51421.6413.87549,1.14259,1.08384.19543.07792.31919.01271.37128-.19564.01292-.04542.03896-.14626.07813-.30252.03917-.15626.06521-.25398.07813-.29315.03917-.1496.00333-.28961-.10751-.42004-.33211-.39712-.49817-.88862-.49817-1.4745,0-.983.34024-1.82786,1.02071-2.53459s1.57076-1.05988,2.67085-1.05946c.983,0,1.74973.2669,2.30019.80069.55046.53379.82548,1.22719.82507,2.08017,0,1.10676-.22294,2.04767-.66881,2.82274-.44587.77506-1.01717,1.16239-1.71389,1.16197-.39712,0-.7161-.14168-.95695-.42504-.24085-.28336-.31565-.62359-.22439-1.02071.05209-.22794.13834-.53234.25877-.9132.12043-.38086.21814-.7161.29315-1.00571.07501-.28961.11251-.53546.11251-.73756,0-.32544-.08792-.59567-.26377-.81069s-.42649-.32253-.75194-.32253c-.40378,0-.74569.18564-1.02571.55692s-.42003.83361-.42003,1.38699c0,.47546.08146.87257.2444,1.19135l-.96696,4.08222c-.11084.45587-.15314,1.03217-.12689,1.72889-1.34136-.59255-2.42541-1.50742-3.25215-2.7446-.82674-1.23719-1.2401-2.61418-1.2401-4.13097l-.00062.00125Z" style="stroke-width:0px;"/></svg>