<?xml version="1.0" encoding="UTF-8"?><svg id="Layer_1" xmlns="http://www.w3.org/2000/svg" viewBox="0 0 16 16"><path d="m15.08727,15.08727c-.5503.5503-1.44185.5503-1.99216,0l-2.48621-2.48621c-1.02186.6553-2.23028,1.04623-3.53526,1.04623C3.4437,13.64729.5,10.70453.5,7.07365S3.4437.5,7.07365.5c3.63088,0,6.57365,2.94277,6.57365,6.57365,0,1.30404-.39093,2.51246-1.04623,3.53526l2.48621,2.48621c.5503.5503.5503,1.44185,0,1.99216ZM7.07365,2.37778c-2.59308,0-4.69586,2.10184-4.69586,4.69586s2.10278,4.69586,4.69586,4.69586,4.69586-2.10184,4.69586-4.69586-2.10184-4.69586-4.69586-4.69586Z" style="stroke-width:0px;"/></svg>