<?xml version="1.0" encoding="UTF-8"?><svg id="Layer_1" xmlns="http://www.w3.org/2000/svg" viewBox="0 0 16 16"><path d="m14.72128,6.68782c-.18537-.18585-.41069-.27872-.6758-.27872h-4.45457V1.95452c-.00043-.26473-.09335-.49-.27872-.6758-.18537-.18585-.41069-.27872-.6758-.27872h-1.27277c-.26473.00043-.49.0933-.6758.27872-.1858.18537-.27872.41064-.27872.6758v4.45458H1.95452c-.26468.00043-.49.0933-.6758.27872-.1858.18537-.27872.41064-.27872.6758v1.27271c.00043.26473.09335.49.27872.67585.18537.1858.41069.27872.6758.27872h4.45457v4.45452c.00043.26473.09335.49.27872.67585.18537.1858.41069.27872.6758.27872h1.27277c.26473-.00043.49-.09335.6758-.27872.1858-.18542.27872-.41069.27872-.67585v-4.45452h4.45457c.26468-.00043.49-.09335.6758-.27872.1858-.18542.27872-.41069.27872-.67585v-1.27271c-.00043-.26473-.09335-.49-.27872-.6758Z" style="stroke-width:0px;"/></svg>