<?xml version="1.0" encoding="UTF-8"?><svg id="Layer_1" xmlns="http://www.w3.org/2000/svg" viewBox="0 0 16 16"><path d="m7.6918,11.82646c.1752.21035.49951.21035.67471,0l4.39453-5.27344c.23935-.28623.03428-.721-.33721-.721h-2.19727V.93945c0-.24287-.19658-.43945-.43945-.43945h-3.57422c-.24287,0-.43945.19658-.43945.43945v4.89258h-2.19727c-.37148,0-.57686.43476-.3375.721l4.45312,5.27344Zm7.36875-2.47881h-1.75781c-.24287,0-.43945.19658-.43945.43945v3.07617H3.13672v-3.07617c0-.24287-.19658-.43945-.43945-.43945H.93945c-.24287,0-.43945.19658-.43945.43945v4.39453c0,.72715.59121,1.31836,1.31836,1.31836h12.36328c.72686,0,1.31836-.59121,1.31836-1.31836v-4.39453c0-.24287-.19658-.43945-.43945-.43945Z" style="stroke-width:0px;"/></svg>